<svg version="1.1" xmlns="http://www.w3.org/2000/svg" viewBox="0 0 872 592" width="872" height="592">
  <!-- svg-source:excalidraw -->
  
  <defs>
    <style>
      @font-face {
        font-family: "Virgil";
        src: url("https://excalidraw.com/Virgil.woff2");
      }
      @font-face {
        font-family: "Cascadia";
        src: url("https://excalidraw.com/Cascadia.woff2");
      }
    </style>
  </defs>
  <g stroke-linecap="round" transform="translate(163 250) rotate(0 62 62)"><path d="M41.38 4.28 C49.7 0.32, 60.83 -0.45, 70.51 0.76 C80.18 1.97, 91.53 5.81, 99.44 11.56 C107.34 17.31, 113.69 26.71, 117.94 35.26 C122.2 43.82, 125.36 53.41, 124.96 62.89 C124.56 72.36, 120.52 83.61, 115.55 92.1 C110.58 100.59, 103.22 108.71, 95.15 113.83 C87.07 118.95, 76.7 121.82, 67.08 122.82 C57.47 123.81, 46.37 123.42, 37.46 119.81 C28.55 116.19, 19.78 108.51, 13.63 101.14 C7.47 93.76, 2.56 84.68, 0.54 75.55 C-1.48 66.42, -1.3 55.76, 1.5 46.34 C4.3 36.92, 8.89 26.69, 17.35 19.02 C25.8 11.35, 44.82 3.33, 52.23 0.31 C59.65 -2.71, 61.74 -0.21, 61.83 0.89 M52.87 0.47 C62.03 -1.94, 75.5 -0.27, 84.49 3.15 C93.48 6.58, 100.57 13.93, 106.83 21.04 C113.09 28.15, 119.63 36.62, 122.07 45.81 C124.5 55.01, 123.69 66.46, 121.45 76.19 C119.2 85.92, 114.98 96.95, 108.6 104.18 C102.22 111.4, 92.32 116.39, 83.15 119.55 C73.98 122.72, 63.18 124.31, 53.58 123.16 C43.98 122.01, 33.16 117.91, 25.56 112.68 C17.96 107.44, 12.05 99.97, 7.97 91.75 C3.9 83.53, 1.4 72.88, 1.09 63.33 C0.77 53.78, 1.88 43.07, 6.08 34.44 C10.28 25.81, 18.27 16.96, 26.26 11.54 C34.25 6.13, 49.55 3.65, 54.04 1.96 C58.53 0.26, 52.98 0.83, 53.21 1.38" stroke="#000000" stroke-width="1" fill="none"></path></g><g transform="translate(191 283) rotate(0 29 25)"><text x="0" y="18" font-family="Virgil, Segoe UI Emoji" font-size="20px" fill="#000000" text-anchor="start" style="white-space: pre;" direction="ltr">x: 0.4</text><text x="0" y="43" font-family="Virgil, Segoe UI Emoji" font-size="20px" fill="#000000" text-anchor="start" style="white-space: pre;" direction="ltr">y: 0.6</text></g><g stroke-linecap="round" transform="translate(390 28) rotate(0 62 62)"><path d="M69.61 -0.36 C78.77 -0.01, 89.93 5.21, 97.88 10.84 C105.83 16.47, 113.02 24.95, 117.32 33.43 C121.62 41.92, 123.77 52.22, 123.68 61.75 C123.6 71.28, 121.41 82.1, 116.82 90.63 C112.22 99.15, 104.05 107.53, 96.1 112.88 C88.15 118.23, 78.52 121.73, 69.12 122.74 C59.73 123.76, 48.65 122.21, 39.71 118.96 C30.77 115.72, 21.86 110.41, 15.49 103.26 C9.11 96.12, 3.75 85.7, 1.45 76.1 C-0.84 66.51, -0.69 54.95, 1.72 45.68 C4.13 36.42, 9.5 27.5, 15.9 20.53 C22.31 13.56, 30.56 7.19, 40.17 3.86 C49.78 0.52, 67.75 0.58, 73.54 0.5 C79.32 0.43, 75.23 2.14, 74.87 3.39 M38.15 5.18 C45.92 0.6, 57.4 -1.85, 66.83 -1.08 C76.27 -0.3, 86.41 4.53, 94.77 9.82 C103.14 15.11, 112.35 22.13, 117.02 30.66 C121.69 39.2, 122.72 51.31, 122.8 61.02 C122.87 70.74, 121.45 80.44, 117.45 88.96 C113.46 97.48, 106.43 106.47, 98.82 112.13 C91.21 117.78, 81.4 121.56, 71.8 122.88 C62.21 124.21, 50.47 123.02, 41.26 120.09 C32.04 117.17, 22.76 112.29, 16.49 105.32 C10.21 98.34, 6.17 87.56, 3.6 78.26 C1.04 68.97, -0.63 58.77, 1.1 49.55 C2.83 40.33, 7.73 30.48, 14 22.96 C20.26 15.43, 34.74 7.42, 38.7 4.43 C42.66 1.44, 37.67 3.98, 37.74 5.02" stroke="#000000" stroke-width="1" fill="none"></path></g><g transform="translate(422 63) rotate(0 31.5 25)"><text x="0" y="18" font-family="Virgil, Segoe UI Emoji" font-size="20px" fill="#000000" text-anchor="start" style="white-space: pre;" direction="ltr">a: 0.8</text><text x="0" y="43" font-family="Virgil, Segoe UI Emoji" font-size="20px" fill="#000000" text-anchor="start" style="white-space: pre;" direction="ltr">b: 0.2</text></g><g stroke-linecap="round" transform="translate(736 10) rotate(0 62 62)"><path d="M84.73 4.57 C93.62 7.03, 102.95 14.12, 109.15 21.3 C115.34 28.48, 119.83 38.16, 121.91 47.63 C123.99 57.1, 123.84 68.84, 121.63 78.12 C119.42 87.41, 115.1 96.3, 108.66 103.36 C102.22 110.42, 92.2 117.1, 83 120.5 C73.81 123.9, 62.92 125.12, 53.5 123.75 C44.08 122.37, 34.38 117.99, 26.49 112.27 C18.6 106.54, 10.73 97.92, 6.17 89.41 C1.61 80.9, -1.05 70.74, -0.88 61.22 C-0.71 51.69, 2.53 40.6, 7.2 32.28 C11.87 23.97, 19.2 16.58, 27.15 11.32 C35.1 6.05, 44.98 1.71, 54.9 0.69 C64.82 -0.32, 80.93 3.99, 86.68 5.22 C92.42 6.45, 89.85 7.12, 89.37 8.08 M35.19 6.25 C42.6 1.44, 53.32 -0.4, 62.74 0.16 C72.17 0.71, 83.09 5.09, 91.74 9.58 C100.39 14.07, 109.31 19.26, 114.63 27.09 C119.95 34.93, 122.83 46.57, 123.65 56.61 C124.46 66.65, 123.2 78.42, 119.53 87.35 C115.86 96.29, 109 104.4, 101.61 110.22 C94.22 116.04, 84.43 120.34, 75.18 122.27 C65.94 124.21, 55.64 124.53, 46.14 121.83 C36.65 119.14, 25.57 112.59, 18.2 106.13 C10.83 99.67, 4.96 92.02, 1.92 83.09 C-1.13 74.15, -1.53 62.09, -0.07 52.52 C1.4 42.95, 4.7 33.49, 10.72 25.68 C16.75 17.87, 31.73 8.6, 36.07 5.65 C40.41 2.71, 36.43 6.91, 36.74 8.01" stroke="#000000" stroke-width="1" fill="none"></path></g><g transform="translate(768 45) rotate(0 29 25)"><text x="0" y="18" font-family="Virgil, Segoe UI Emoji" font-size="20px" fill="#000000" text-anchor="start" style="white-space: pre;" direction="ltr">x: 0.5</text><text x="0" y="43" font-family="Virgil, Segoe UI Emoji" font-size="20px" fill="#000000" text-anchor="start" style="white-space: pre;" direction="ltr">y: 0.5</text></g><g stroke-linecap="round" transform="translate(398 458) rotate(0 62 62)"><path d="M40.82 2.89 C49.05 -1.33, 61.34 -1.84, 70.9 -0.37 C80.46 1.1, 90.49 6.17, 98.18 11.72 C105.88 17.27, 112.8 24.46, 117.08 32.94 C121.37 41.41, 123.93 52.97, 123.92 62.58 C123.9 72.19, 121.63 82.19, 116.98 90.61 C112.33 99.03, 104.03 107.59, 96 113.1 C87.96 118.61, 78.23 122.42, 68.75 123.66 C59.28 124.9, 48.14 123.97, 39.14 120.54 C30.14 117.12, 20.87 110.61, 14.74 103.11 C8.61 95.62, 4.51 85.1, 2.34 75.59 C0.17 66.07, -0.55 55.14, 1.74 46.04 C4.04 36.95, 9.25 28.15, 16.11 21 C22.96 13.85, 38.09 5.93, 42.9 3.14 C47.71 0.35, 44.58 3.18, 44.97 4.27 M62.75 -1.49 C71.8 -2.35, 82.28 2.34, 90.78 7.29 C99.28 12.24, 108.04 20.52, 113.75 28.22 C119.46 35.93, 124.1 44.18, 125.04 53.53 C125.98 62.88, 123.17 74.97, 119.39 84.32 C115.62 93.67, 109.27 103.42, 102.4 109.62 C95.53 115.82, 87.18 119.62, 78.18 121.55 C69.19 123.47, 58.14 123.28, 48.43 121.15 C38.73 119.02, 27.53 115.19, 19.94 108.75 C12.36 102.32, 6.16 91.59, 2.95 82.53 C-0.27 73.48, -0.74 63.77, 0.65 54.4 C2.03 45.04, 5.74 34, 11.24 26.32 C16.74 18.64, 25.2 12.59, 33.64 8.32 C42.09 4.05, 57.43 1.97, 61.92 0.69 C66.41 -0.6, 60.57 -0.29, 60.58 0.63" stroke="#000000" stroke-width="1" fill="none"></path></g><g transform="translate(430 495) rotate(0 28.5 25)"><text x="0" y="18" font-family="Virgil, Segoe UI Emoji" font-size="20px" fill="#000000" text-anchor="start" style="white-space: pre;" direction="ltr">a: 0.1</text><text x="0" y="43" font-family="Virgil, Segoe UI Emoji" font-size="20px" fill="#000000" text-anchor="start" style="white-space: pre;" direction="ltr">b: 0.9</text></g><g stroke-linecap="round" transform="translate(738 444) rotate(0 62 62)"><path d="M74.5 0.6 C83.89 1.76, 94.79 8.87, 102.13 15.04 C109.48 21.22, 115.02 29.1, 118.59 37.66 C122.15 46.23, 124.36 56.81, 123.51 66.44 C122.67 76.07, 118.72 87.28, 113.51 95.45 C108.31 103.61, 100.53 110.6, 92.3 115.42 C84.08 120.23, 73.75 123.99, 64.15 124.34 C54.55 124.69, 43.49 121.72, 34.69 117.52 C25.89 113.33, 17.17 106.91, 11.35 99.15 C5.53 91.39, 1.24 80.43, -0.22 70.97 C-1.67 61.52, -0.55 51.55, 2.59 42.41 C5.74 33.27, 11.56 22.94, 18.67 16.15 C25.78 9.36, 34.77 3.9, 45.25 1.69 C55.73 -0.52, 74.41 1.88, 81.54 2.9 C88.67 3.92, 88.29 6.7, 88.03 7.82 M55.33 -1.09 C64.4 -2.77, 77.41 1.32, 86.6 5.19 C95.79 9.07, 104.48 15.13, 110.48 22.17 C116.49 29.2, 120.49 38.16, 122.62 47.41 C124.74 56.65, 125.77 68.19, 123.24 77.62 C120.71 87.04, 114.35 96.98, 107.44 103.94 C100.54 110.91, 90.85 116.2, 81.78 119.41 C72.72 122.63, 62.41 124.38, 53.05 123.22 C43.7 122.07, 33.23 118.31, 25.62 112.48 C18.02 106.66, 11.51 96.87, 7.45 88.29 C3.39 79.71, 1.14 70.55, 1.24 61 C1.35 51.45, 3.51 39.32, 8.06 31 C12.61 22.67, 20.56 16.09, 28.55 11.04 C36.54 5.99, 51.47 2.03, 55.99 0.68 C60.51 -0.67, 55.77 2.12, 55.67 2.92" stroke="#000000" stroke-width="1" fill="none"></path></g><g transform="translate(780 491) rotate(0 25 12.5)"><text x="0" y="18" font-family="Virgil, Segoe UI Emoji" font-size="20px" fill="#000000" text-anchor="start" style="white-space: pre;" direction="ltr">y: 1.0</text></g><g stroke-linecap="round"><g transform="translate(266 250) rotate(0 62.56657003728208 -54.41773035710213)"><path d="M-0.45 0.53 C19.98 -17.39, 102.35 -89.44, 123.26 -107.51 M1.51 -0.23 C22.27 -18.52, 105.04 -91.66, 125.59 -109.37" stroke="#000000" stroke-width="1" fill="none"></path></g><g transform="translate(266 250) rotate(0 62.56657003728208 -54.41773035710213)"><path d="M112.01 -84.32 C117.08 -90.67, 121.65 -101.47, 125.41 -110.45 M111.59 -83.47 C116.61 -91.96, 119.6 -99.12, 126.21 -108.42" stroke="#000000" stroke-width="1" fill="none"></path></g><g transform="translate(266 250) rotate(0 62.56657003728208 -54.41773035710213)"><path d="M98.5 -99.77 C108.38 -100.58, 117.75 -105.88, 125.41 -110.45 M98.08 -98.92 C107.44 -102.41, 114.71 -104.67, 126.21 -108.42" stroke="#000000" stroke-width="1" fill="none"></path></g></g><g stroke-linecap="round"><g transform="translate(284 360) rotate(0 57.855740849799474 54.58484505672939)"><path d="M-0.22 -0.26 C19.55 18.03, 97.84 90.94, 117.5 109.39 M-1.79 -1.44 C17.87 17.03, 96.52 92.3, 116.29 110.61" stroke="#000000" stroke-width="1" fill="none"></path></g><g transform="translate(284 360) rotate(0 57.855740849799474 54.58484505672939)"><path d="M88.32 97.89 C93.46 100.81, 101.01 105.58, 114.47 110.15 M87.83 99.55 C94.59 101.53, 101.45 103.98, 115.41 110.56" stroke="#000000" stroke-width="1" fill="none"></path></g><g transform="translate(284 360) rotate(0 57.855740849799474 54.58484505672939)"><path d="M102.4 82.97 C104.55 88.98, 109.16 96.87, 114.47 110.15 M101.92 84.62 C105.61 89.82, 109.35 95.57, 115.41 110.56" stroke="#000000" stroke-width="1" fill="none"></path></g></g><g stroke-linecap="round"><g transform="translate(525.8445997936847 82.32047649195994) rotate(0 96.0988189736475 -1.7919656320951844)"><path d="M-0.61 0.78 C31.35 -0.06, 160.67 -3.37, 192.8 -4.37 M1.28 0.15 C33.03 -0.54, 160.45 -2.05, 192.14 -2.78" stroke="#000000" stroke-width="1" fill="none"></path></g><g transform="translate(525.8445997936847 82.32047649195994) rotate(0 96.0988189736475 -1.7919656320951844)"><path d="M165.43 8.84 C175.08 3.82, 184.56 1.24, 193.75 -4.48 M164.66 7.85 C172.69 3.81, 182.87 0.37, 192.79 -1.93" stroke="#000000" stroke-width="1" fill="none"></path></g><g transform="translate(525.8445997936847 82.32047649195994) rotate(0 96.0988189736475 -1.7919656320951844)"><path d="M165.09 -11.67 C174.99 -8.74, 184.6 -3.37, 193.75 -4.48 M164.31 -12.67 C172.49 -10.2, 182.78 -7.13, 192.79 -1.93" stroke="#000000" stroke-width="1" fill="none"></path></g></g><g stroke-linecap="round"><g transform="translate(535.9855661355891 522.4887223738302) rotate(0 93.19813226977101 2.0173052408044896)"><path d="M-0.83 0.86 C30.08 1.32, 154.01 2.2, 184.94 2.31 M0.94 0.27 C32.27 0.96, 156.19 3.41, 187.22 3.77" stroke="#000000" stroke-width="1" fill="none"></path></g><g transform="translate(535.9855661355891 522.4887223738302) rotate(0 93.19813226977101 2.0173052408044896)"><path d="M160.31 12.21 C165.94 9.59, 171.97 10.13, 185.27 3.61 M158.93 13.17 C168.13 11.16, 177.82 5.93, 186.49 4.71" stroke="#000000" stroke-width="1" fill="none"></path></g><g transform="translate(535.9855661355891 522.4887223738302) rotate(0 93.19813226977101 2.0173052408044896)"><path d="M160.64 -8.31 C166.11 -5.65, 172.06 0.17, 185.27 3.61 M159.26 -7.35 C168.55 -2.15, 178.12 -0.16, 186.49 4.71" stroke="#000000" stroke-width="1" fill="none"></path></g></g><g stroke-linecap="round"><g transform="translate(730.6261820187974 47.48941757860939) rotate(0 -105.98477629132299 1.8148657521586529)"><path d="M0.07 -0.08 C-35.19 0.29, -176.08 2.55, -211.61 3.17 M-1.35 -1.16 C-36.67 -0.66, -176.57 4.32, -212.04 4.79" stroke="#000000" stroke-width="1" fill="none"></path></g><g transform="translate(730.6261820187974 47.48941757860939) rotate(0 -105.98477629132299 1.8148657521586529)"><path d="M-184.25 -4.54 C-191.97 -3.84, -199.32 1.49, -212.9 5.62 M-183.19 -5.97 C-193.68 -1.33, -203.53 1.25, -211.27 4.92" stroke="#000000" stroke-width="1" fill="none"></path></g><g transform="translate(730.6261820187974 47.48941757860939) rotate(0 -105.98477629132299 1.8148657521586529)"><path d="M-183.73 15.97 C-191.76 10.65, -199.27 9.94, -212.9 5.62 M-182.66 14.55 C-193.46 11.71, -203.51 6.8, -211.27 4.92" stroke="#000000" stroke-width="1" fill="none"></path></g></g><g stroke-linecap="round"><g transform="translate(756 134) rotate(0 -119.7514738963963 163.74739009615502)"><path d="M0.76 0.03 C-39.09 54.64, -199.57 274.04, -239.55 328.5 M-0.3 -1.01 C-40.23 53.17, -200.41 271.89, -240.26 326.64" stroke="#000000" stroke-width="1" fill="none"></path></g><g transform="translate(756 134) rotate(0 -119.7514738963963 163.74739009615502)"><path d="M-231.87 298.58 C-233.06 306.84, -238.04 312.43, -240.19 326.04 M-232.6 298.43 C-234.6 306.7, -237.09 314.08, -239.35 325.72" stroke="#000000" stroke-width="1" fill="none"></path></g><g transform="translate(756 134) rotate(0 -119.7514738963963 163.74739009615502)"><path d="M-215.3 310.68 C-220.89 315.9, -230.19 318.33, -240.19 326.04 M-216.03 310.54 C-222.87 315.36, -230.11 319.27, -239.35 325.72" stroke="#000000" stroke-width="1" fill="none"></path></g></g><g stroke-linecap="round"><g transform="translate(802 428) rotate(0 -0.5717998194927532 -138.92197493091226)"><path d="M0.68 0.25 C0.28 -46.16, -0.94 -231.88, -1.26 -278.1 M-0.42 -0.66 C-1.02 -46.91, -1.62 -230.23, -1.82 -276.61" stroke="#000000" stroke-width="1" fill="none"></path></g><g transform="translate(802 428) rotate(0 -0.5717998194927532 -138.92197493091226)"><path d="M8.97 -247.23 C4.2 -258.26, 1.81 -269.78, -1.72 -278.29 M7.69 -247.53 C5.37 -260.18, -0.62 -271.16, -2.71 -276.1" stroke="#000000" stroke-width="1" fill="none"></path></g><g transform="translate(802 428) rotate(0 -0.5717998194927532 -138.92197493091226)"><path d="M-11.55 -247.15 C-8.22 -258.33, -2.5 -269.88, -1.72 -278.29 M-12.83 -247.45 C-7.15 -260.19, -5.13 -271.21, -2.71 -276.1" stroke="#000000" stroke-width="1" fill="none"></path></g></g><g stroke-linecap="round"><g transform="translate(738 118) rotate(0 -211.3743778687948 90.20265217085367)"><path d="M0.75 0.04 C-69.71 29.93, -352.08 149.79, -423.05 179.91 M-0.32 -0.99 C-70.82 29.05, -353.09 151.44, -423.5 181.4" stroke="#000000" stroke-width="1" fill="none"></path></g><g transform="translate(738 118) rotate(0 -211.3743778687948 90.20265217085367)"><path d="M-401.59 162.42 C-407.71 164.8, -412.35 173.81, -422.84 182.52 M-400.68 161.39 C-406.5 164.83, -411.37 169.56, -423.08 180.76" stroke="#000000" stroke-width="1" fill="none"></path></g><g transform="translate(738 118) rotate(0 -211.3743778687948 90.20265217085367)"><path d="M-393.48 181.27 C-401.91 178.54, -408.78 182.37, -422.84 182.52 M-392.58 180.24 C-400.07 179.69, -406.69 180.37, -423.08 180.76" stroke="#000000" stroke-width="1" fill="none"></path></g></g><g transform="translate(298 169) rotate(0 16.5 12.5)"><text x="0" y="18" font-family="Virgil, Segoe UI Emoji" font-size="20px" fill="#000000" text-anchor="start" style="white-space: pre;" direction="ltr">0.5</text></g><g transform="translate(281.5 413.5) rotate(0 16.5 12.5)"><text x="0" y="18" font-family="Virgil, Segoe UI Emoji" font-size="20px" fill="#000000" text-anchor="start" style="white-space: pre;" direction="ltr">0.5</text></g><g transform="translate(599.5 83.5) rotate(0 13 12.5)"><text x="0" y="18" font-family="Virgil, Segoe UI Emoji" font-size="20px" fill="#000000" text-anchor="start" style="white-space: pre;" direction="ltr">1.0</text></g><g transform="translate(635.5 15.5) rotate(0 13 12.5)"><text x="0" y="18" font-family="Virgil, Segoe UI Emoji" font-size="20px" fill="#000000" text-anchor="start" style="white-space: pre;" direction="ltr">0.1</text></g><g transform="translate(571.5 533.5) rotate(0 13 12.5)"><text x="0" y="18" font-family="Virgil, Segoe UI Emoji" font-size="20px" fill="#000000" text-anchor="start" style="white-space: pre;" direction="ltr">1.0</text></g><g transform="translate(637 303.5) rotate(0 13 12.5)"><text x="0" y="18" font-family="Virgil, Segoe UI Emoji" font-size="20px" fill="#000000" text-anchor="start" style="white-space: pre;" direction="ltr">0.1</text></g><g transform="translate(629 163.5) rotate(0 18 12.5)"><text x="0" y="18" font-family="Virgil, Segoe UI Emoji" font-size="20px" fill="#000000" text-anchor="start" style="white-space: pre;" direction="ltr">0.8</text></g><g stroke-linecap="round"><g transform="translate(74 306) rotate(0 38.788368628174084 -1.0579494096338635)"><path d="M-0.29 -0.15 C12.72 -0.34, 64.82 -1.55, 77.86 -1.96" stroke="#000000" stroke-width="1.5" fill="none" stroke-dasharray="8 9"></path></g><g transform="translate(74 306) rotate(0 38.788368628174084 -1.0579494096338635)"><path d="M49.7 8.82 C58.02 5.96, 64.82 3.73, 78.85 -3.48" stroke="#000000" stroke-width="1.5" fill="none"></path></g><g transform="translate(74 306) rotate(0 38.788368628174084 -1.0579494096338635)"><path d="M49.15 -11.7 C57.49 -8.72, 64.44 -5.13, 78.85 -3.48" stroke="#000000" stroke-width="1.5" fill="none"></path></g></g><g transform="translate(10 295) rotate(0 28 12.5)"><text x="0" y="18" font-family="Virgil, Segoe UI Emoji" font-size="20px" fill="#000000" text-anchor="start" style="white-space: pre;" direction="ltr">start</text></g><g transform="translate(814 295) rotate(0 13 12.5)"><text x="0" y="18" font-family="Virgil, Segoe UI Emoji" font-size="20px" fill="#000000" text-anchor="start" style="white-space: pre;" direction="ltr">1.0</text></g></svg>